<?xml version="1.0" encoding="utf-8"?>
<svg width="100" height="100" viewBox="0 0 240.52 330.92" xmlns="http://www.w3.org/2000/svg" xmlns:xlink="http://www.w3.org/1999/xlink">
<style type="text/css">
	.st0{fill:url(#SVGID_1_);}
	.st1{fill:url(#SVGID_2_);}
	.st2{fill:url(#SVGID_3_);}
	.st3{fill:url(#SVGID_4_);}
	.st4{fill:url(#SVGID_5_);}
	.st5{fill:url(#SVGID_6_);}
	.st6{fill:url(#SVGID_7_);}
	.st7{fill:url(#SVGID_8_);}
	.st8{fill:url(#SVGID_9_);}
	.st9{fill:#2AC64B;}
	.st10{fill:#97CC1A;}
	.st11{fill:#666565;}
	.st12{fill:#00863F;}
	.st13{fill:#008A5A;}
	.st14{fill:#009550;}
	.st15{fill:#009A37;}
	.st16{fill:#06CBF6;}
</style>
<g transform="scale(0.3)">
	<path class="st9" d="M11.81,111.67c-4.04-1.84-7.54-3.26-10.4-4.33c-0.6-4.49-1.04-8.99-1.31-13.51 c-0.22-3.72-0.08-7.39,0.36-10.99c2.43,0.4,5.87,1,10.15,1.83c-0.42,5.11-0.46,10.49,0,16.17C10.9,104.47,11.3,108.08,11.81,111.67 z M51.77,135.26c-10.22-7.5-19.82-13.31-28.16-17.77c-1.69-10.39-2.41-20.69-1.78-30.49c7.71,1.7,16.83,3.9,26.86,6.69 C48.03,106.8,49.26,120.9,51.77,135.26L51.77,135.26z M156.73,140.73c-0.1,1.13-0.23,2.28-0.35,3.43 c-13.96,7.29-27.86,17.12-40.35,30.37c-4.04,4.28-7.72,8.58-11.09,12.86c-3.78-4.78-7.81-9.62-12.09-14.48 c-1.92-2.17-3.84-4.28-5.78-6.34c-3.21-21.5-5.25-42.71-5.63-62.59C106.29,112.8,133.12,124.77,156.73,140.73z"/>
	<path class="st13" d="M14.86,63.78c-2.09,6.34-3.61,13.3-4.25,20.89c-4.28-0.83-7.72-1.43-10.15-1.83 c0.27-2.27,0.68-4.51,1.19-6.72C4.7,72.84,9.11,68.51,14.86,63.78z"/>
	<path class="st14" d="M63.49,36.38c-7.35,13.48-13.24,31.65-14.73,55.89c-0.02,0.47-0.05,0.95-0.07,1.42 c-10.03-2.79-19.14-4.98-26.85-6.69c0.01-0.33,0.04-0.64,0.06-0.97c0.96-12.71,4.71-24.37,10.38-34.72 C41.05,45.9,51.44,40.64,63.49,36.38z"/>
	<path class="st15" d="M156.73,140.73c-23.61-15.96-50.44-27.93-75.29-36.75C80.96,80.3,82.8,58.53,87.7,40.49 c0.13-0.5,0.27-0.99,0.41-1.47c19.71,11.65,45.39,24.64,69.77,30.34C160.01,90.86,159.37,115.29,156.73,140.73L156.73,140.73z"/>
	<path class="st16" d="M240.42,93.83c-0.6,10-2.03,19.9-4.25,29.8c-2.81,0.11-6.05,0.29-9.64,0.6c1.58-7.63,2.74-15.44,3.38-23.39 c2.14-26.76-6.51-47.14-16.51-61.37c2.93,0.83,5.71,1.65,8.3,2.45C232.93,56.16,241.6,74.46,240.42,93.83z"/>
</g>
</svg>